# xmcd
#
# Track frame offsets:
#	150
#	13524
#	26899
#	52569
#	64987
#	79789
#	92269
#	104755
#	117373
#	129603
#	141966
#	154326
#	170805
#	189343
#	205820
#	218183
#	226553
#	236860
#	254500
#	266876
#	277185
#	287495
#	305147
#
# Disc length: 4236
#
# Revision: 1
# Processed by: cddbd v1.5.1PL0 Copyright (c) Steve Scherf et al.
# Submitted via: dBpowerAMP V4.0
# Normalized: r0:TDELIM( - )
#
DISCID=59108a17
DTITLE=Various Artist - Year Of Trance 2000, CD3
DYEAR=2000
DGENRE=Dance
TTITLE0=Jazzy M - Jazzin' The Way You Know
TTITLE1=Riva - The Hunter
TTITLE2=Airwave - Innerspace
TTITLE3=JM - S'Envolver
TTITLE4=Sonic Tribe - Rotation
TTITLE5=Fred Numf and Five Point O - Globalisation
TTITLE6=JVD - Let's Go
TTITLE7=Jean - Love Come Home
TTITLE8=Club Caviar - Pouring Love
TTITLE9=Kernkraft 400 - Zombie Nation
TTITLE10=Ventura - Ace
TTITLE11=Rattray - Your Body
TTITLE12=Ajantis - Endurium
TTITLE13=Planet Perfecto - Bullet In The Gun 2000
TTITLE14=Jaimy and Kenny D - Caught Me running
TTITLE15=Sunshine People - I Believe
TTITLE16=Total Recall - Emotions
TTITLE17=Twenty Something - Natural
TTITLE18=Aura - The Chant
TTITLE19=Out Of Grace - Anglia
TTITLE20=Jurgen - Higher and Higher
TTITLE21=Mantrax - Our World
TTITLE22=Svenson - Clubbin' On Sunshine
EXTD=
EXTT0=
EXTT1=
EXTT2=
EXTT3=
EXTT4=
EXTT5=
EXTT6=
EXTT7=
EXTT8=
EXTT9=
EXTT10=
EXTT11=
EXTT12=
EXTT13=
EXTT14=
EXTT15=
EXTT16=
EXTT17=
EXTT18=
EXTT19=
EXTT20=
EXTT21=
EXTT22=
PLAYORDER=
